<?xml version="1.0" encoding="UTF-8"?>
<svg id="Layer_1" data-name="Layer 1" xmlns="http://www.w3.org/2000/svg" xmlns:xlink="http://www.w3.org/1999/xlink" viewBox="0 0 100 100">
  <defs>
    <style>
      .cls-1 {
        fill: url(#linear-gradient);
      }
    </style>
    <linearGradient id="linear-gradient" x1="0" y1="50" x2="100" y2="50" gradientUnits="userSpaceOnUse">
      <stop offset="0" stop-color="#a88a63"/>
      <stop offset=".5" stop-color="#f5efbf"/>
      <stop offset="1" stop-color="#977a4a"/>
    </linearGradient>
  </defs>
  <rect class="cls-1" width="100" height="100"/>
  <g>
    <path d="M79.48,59.39c0-.53,0-1.06,0-1.59,0-.15,.04-.32-.14-.41-.16-.08-.3,.01-.42,.11-.47,.4-.94,.78-1.49,1.08-1.14,.62-2.34,.68-3.57,.39-.82-.19-1.32-.74-1.59-1.52-.29-.81-.32-.82-1.12-.53-1.67,.6-3.41,.68-5.16,.52-1.04-.1-1.83-.7-2.43-1.55-.3-.43-.62-.85-.95-1.27-.36-.45-.63-.49-1.08-.13-.63,.51-1.14,1.12-1.58,1.8-.31,.48-.64,.93-1.19,1.16-.85,.36-1.5,.08-1.79-.78-.06-.18-.14-.36-.35-.41-.25-.05-.36,.15-.49,.31-.95,1.23-2.04,2.31-3.41,3.06-1.33,.73-2.76,1.12-4.28,.64-1.17-.36-1.76-1.24-1.99-2.39-.32-1.54-.27-3.08-.1-4.63,.16-1.49,.29-2.98,.43-4.48,.02-.24,.16-.59-.16-.67-.35-.09-.41,.29-.51,.53-.82,1.97-1.7,3.91-2.67,5.82-1.8,3.55-3.74,7.02-6.12,10.23-1.89,2.55-3.93,4.95-6.65,6.67-1.38,.87-2.86,1.49-4.55,1.24-1.1-.16-1.91-.76-2.45-1.75-.78-1.44-1.09-3.02-1.2-4.62-.18-2.63-.06-5.26,.25-7.86,.27-2.31,.63-4.62,1.1-6.91,.51-2.45,.93-4.93,1.43-7.38,.42-2.07,.83-4.14,1.12-6.23,.3-2.14,.61-4.29,.4-6.47-.05-.53-.2-1.04-.39-1.53-.39-1.02-1.42-1.49-2.57-1.25-1.43,.29-2.73,.9-3.93,1.69-3.89,2.55-7.28,5.65-9.99,9.44-1.3,1.82-2.35,3.79-2.83,5.98-.51,2.36-.16,4.61,1.4,6.55,.75,.93,1.79,1.46,2.93,1.78,.28,.08,.56,.16,.83,.25,.17,.06,.31,.17,.31,.37,0,.22-.14,.34-.32,.42-.29,.12-.61,.12-.91,.08-2.49-.37-4.34-1.62-5.47-3.9-.75-1.5-.97-3.1-.77-4.73,.24-1.97,.92-3.8,1.93-5.51,2.52-4.26,5.97-7.66,9.93-10.55,1.63-1.19,3.39-2.18,5.37-2.72,1.25-.34,2.53-.43,3.8-.14,1.24,.27,2.03,1.07,2.46,2.24,.22,.6,.33,1.22,.35,1.85,.08,2.57-.24,5.1-.63,7.64-.38,2.43-.95,4.81-1.35,7.23-.21,1.28-.56,2.53-.76,3.81-.23,1.52-.61,3-.79,4.53-.12,1.08-.34,2.15-.48,3.23-.13,1-.21,2-.28,3-.13,1.75-.19,3.51,0,5.26,.16,1.5,.4,2.98,1.3,4.26,.54,.78,.89,.91,1.78,.56,1.35-.53,2.51-1.38,3.57-2.36,1.99-1.82,3.63-3.93,5.14-6.16,1.87-2.76,3.48-5.67,4.96-8.66,1.49-3.02,2.84-6.09,3.97-9.26,.72-2.05,1.19-4.16,1.71-6.26,.22-.88,.97-1.33,1.73-1.06,.4,.14,.62,.41,.64,.83,.06,.95,.04,1.9-.01,2.85-.19,2.98-.35,5.96-.62,8.93-.15,1.7-.39,3.39-.44,5.09-.03,1.11-.01,2.26,.53,3.3,.37,.71,1.1,.92,1.89,.51,.64-.33,1.22-.74,1.79-1.19,1.1-.87,2.21-1.72,3.32-2.57,.37-.29,.72-.57,.75-1.1,.02-.41,.24-.66,.66-.74,.43-.08,.77,.05,1,.43,.54,.86,.58,.9,1.32,.2,.78-.73,1.63-1.12,2.71-1.11,.97,.02,1.71,.4,2.26,1.18,.4,.57,.78,1.16,1.27,1.66,.42,.43,.92,.61,1.51,.65,1.39,.1,2.67-.25,3.91-.84,.4-.19,.61-.46,.63-.91,.01-.25,.05-.51,.11-.76,.12-.55,.56-.83,1.15-.77,.48,.05,.66,.28,.67,.91,.02,.87-.04,1.74,.2,2.59,.3,1.1,1.12,1.55,2.19,1.17,.85-.3,1.49-.87,2.11-1.49,.01-.01,.02-.03,.03-.04,1.11-.83,1.27-1.96,1.23-3.26-.1-2.98,.21-5.96,.23-8.94,.02-2.29,.28-4.59,.4-6.88,.1-1.84,.36-3.66,.59-5.49,.11-.83,.38-1.63,.9-2.31,.47-.61,1.09-.94,1.87-.81,.77,.12,1.24,.63,1.48,1.34,.35,1.02,.45,2.09,.56,3.16,.15,1.5,.11,3-.02,4.5-.16,1.78-.42,3.55-.78,5.31-.56,2.69-1.33,5.33-2.03,7.98-.34,1.27-.78,2.51-1.13,3.78-.24,.84-.19,1.72-.26,2.58-.02,.24,.05,.54,.33,.65,.28,.11,.5-.08,.68-.26,.52-.52,1.02-1.05,1.53-1.58,.64-.67,1.27-1.34,2.01-1.89,.38-.28,.78-.5,1.27-.48,.32,.01,.68-.02,.87,.32,.2,.36,0,.66-.21,.94-.37,.48-.63,1.01-.83,1.58-.19,.53-.25,1.05,.19,1.48,.42,.42,.94,.27,1.4,.1,1.35-.48,2.56-1.2,3.71-2.05,.61-.46,1.17-1,1.94-1.21,.23-.06,.48-.17,.66,.07,.17,.23,.06,.46-.06,.67-.28,.49-.7,.83-1.11,1.19-1.76,1.51-3.75,2.54-6.09,2.81-1.35,.15-2.04-.22-2.62-1.44-.27-.56-.41-.56-.81-.08-.92,1.11-1.71,2.3-2.37,3.58-.26,.5-.67,.76-1.24,.74-.74-.03-1.04-.31-1.13-1.05,0-.07-.01-.14-.01-.2,0-.55,0-1.09,0-1.64,0,0,.01,0,.02,0Zm4.08-24.95c.02-.84,0-1.67-.13-2.5-.03-.21-.06-.5-.34-.5-.25,0-.27,.28-.3,.47-.1,.78-.2,1.55-.27,2.33-.14,1.75-.32,3.49-.47,5.24-.14,1.71-.25,3.42-.35,5.14-.03,.6-.04,1.19-.15,1.78-.08,.44-.09,.88-.02,1.32,.02,.14,.03,.35,.23,.35,.16,0,.18-.19,.21-.31,.12-.57,.25-1.13,.33-1.7,.21-1.64,.5-3.26,.71-4.9,.29-2.23,.48-4.47,.54-6.72Z"/>
    <path d="M72.07,50.09c0-1.03,.7-1.64,1.59-1.44,.21,.05,.42,.12,.49,.32,.2,.58,.11,1.15-.24,1.65-.26,.38-.84,.52-1.34,.36-.48-.15-.48-.56-.5-.9Z"/>
  </g>
</svg>